<?xml version="1.0" encoding="UTF-8"?>
<svg width="25px" height="25px" viewBox="0 0 25 25" version="1.1" xmlns="http://www.w3.org/2000/svg" xmlns:xlink="http://www.w3.org/1999/xlink">
    <!-- Generator: Sketch 43.1 (39012) - http://www.bohemiancoding.com/sketch -->
    <title>female</title>
    <desc>Created with Sketch.</desc>
    <defs></defs>
    <g id="Page-1" stroke="none" stroke-width="1" fill="none" fill-rule="evenodd">
        <g id="MAIN" transform="translate(-282.000000, -524.000000)" fill="#FFFFFF">
            <g id="iconfemale" transform="translate(253.000000, 494.000000)">
                <path d="M31.8749996,46.6249988 L29.1249998,46.6249988 L29.1249998,52.1249984 C29.1249998,53.6374988 30.3624998,54.8749983 31.8749996,54.8749983 L37.3749993,54.8749983 L37.3749993,52.1249984 L31.8749996,52.1249984 L31.8749996,46.6249988 Z M31.8749996,32.8749996 L37.3749993,32.8749996 L37.3749993,30.1249998 L31.8749996,30.1249998 C30.3624998,30.1249998 29.1249998,31.3624998 29.1249998,32.8749996 L29.1249998,38.3749993 L31.8749996,38.3749993 L31.8749996,32.8749996 Z M51.1249984,30.1249998 L45.6249988,30.1249998 L45.6249988,32.8749996 L51.1249984,32.8749996 L51.1249984,38.3749993 L53.8749983,38.3749993 L53.8749983,32.8749996 C53.8749983,31.3624998 52.6374988,30.1249998 51.1249984,30.1249998 Z M51.1249984,52.1249984 L45.6249988,52.1249984 L45.6249988,54.8749983 L51.1249984,54.8749983 C52.6374988,54.8749983 53.8749983,53.6374988 53.8749983,52.1249984 L53.8749983,46.6249988 L51.1249984,46.6249988 L51.1249984,52.1249984 Z M41.499999,36.9999993 C38.4612491,36.9999993 35.9999993,39.4612491 35.9999993,42.499999 C35.9999993,45.5387488 38.4612491,47.9999987 41.499999,47.9999987 C44.5387488,47.9999987 46.9999987,45.5387488 46.9999987,42.499999 C46.9999987,39.4612491 44.5387488,36.9999993 41.499999,36.9999993 Z M41.499999,45.2499988 C39.9874986,45.2499988 38.7499992,44.0124993 38.7499992,42.499999 C38.7499992,40.9874986 39.9874986,39.7499992 41.499999,39.7499992 C43.0124993,39.7499992 44.2499988,40.9874986 44.2499988,42.499999 C44.2499988,44.0124993 43.0124993,45.2499988 41.499999,45.2499988 Z" id="female"></path>
            </g>
        </g>
    </g>
</svg>