<?xml version="1.0" encoding="UTF-8"?>
<svg width="25px" height="25px" viewBox="0 0 25 25" version="1.1" xmlns="http://www.w3.org/2000/svg" xmlns:xlink="http://www.w3.org/1999/xlink">
    <!-- Generator: Sketch 43.1 (39012) - http://www.bohemiancoding.com/sketch -->
    <title>male</title>
    <desc>Created with Sketch.</desc>
    <defs></defs>
    <g id="Page-1" stroke="none" stroke-width="1" fill="none" fill-rule="evenodd">
        <g id="MAIN" transform="translate(-108.000000, -523.000000)" fill="#FFFFFF">
            <g id="iconmale" transform="translate(79.000000, 494.000000)">
                <path d="M41.499999,35.9999993 C38.4612491,35.9999993 35.9999993,38.4612491 35.9999993,41.499999 C35.9999993,44.5387488 38.4612491,46.9999987 41.499999,46.9999987 C44.5387488,46.9999987 46.9999987,44.5387488 46.9999987,41.499999 C46.9999987,38.4612491 44.5387488,35.9999993 41.499999,35.9999993 Z M31.8749996,45.6249988 L29.1249998,45.6249988 L29.1249998,51.1249984 C29.1249998,52.6374988 30.3624998,53.8749983 31.8749996,53.8749983 L37.3749993,53.8749983 L37.3749993,51.1249984 L31.8749996,51.1249984 L31.8749996,45.6249988 Z M31.8749996,31.8749996 L37.3749993,31.8749996 L37.3749993,29.1249998 L31.8749996,29.1249998 C30.3624998,29.1249998 29.1249998,30.3624998 29.1249998,31.8749996 L29.1249998,37.3749993 L31.8749996,37.3749993 L31.8749996,31.8749996 Z M51.1249984,29.1249998 L45.6249988,29.1249998 L45.6249988,31.8749996 L51.1249984,31.8749996 L51.1249984,37.3749993 L53.8749983,37.3749993 L53.8749983,31.8749996 C53.8749983,30.3624998 52.6374988,29.1249998 51.1249984,29.1249998 Z M51.1249984,51.1249984 L45.6249988,51.1249984 L45.6249988,53.8749983 L51.1249984,53.8749983 C52.6374988,53.8749983 53.8749983,52.6374988 53.8749983,51.1249984 L53.8749983,45.6249988 L51.1249984,45.6249988 L51.1249984,51.1249984 Z" id="male"></path>
            </g>
        </g>
    </g>
</svg>