<?xml version="1.0" encoding="UTF-8"?>
<svg width="16px" height="17px" viewBox="0 0 16 17" version="1.1" xmlns="http://www.w3.org/2000/svg" xmlns:xlink="http://www.w3.org/1999/xlink">
    <!-- Generator: Sketch 43.2 (39069) - http://www.bohemiancoding.com/sketch -->
    <title></title>
    <desc>Created with Sketch.</desc>
    <defs></defs>
    <g id="Page-1" stroke="none" stroke-width="1" fill="none" fill-rule="evenodd">
        <g id="SCAN-RESULT" transform="translate(-82.000000, -675.000000)" fill="#FFFFFF">
            <g id="actions" transform="translate(65.000000, 659.000000)">
                <path d="M20.8571475,31 L28.5714424,31 L28.5714424,27.1428525 L20.8571475,27.1428525 L20.8571475,31 Z M29.8571582,31 L31.142874,31 L31.142874,21.9999893 C31.142874,21.8091408 30.9721149,21.39731 30.8415344,21.2667295 L28.0189863,18.4441815 C27.8783612,18.3035563 27.4866196,18.1428418 27.2857265,18.1428418 L27.2857265,22.3214182 C27.2857265,22.8537849 26.8538064,23.2857051 26.3214397,23.2857051 L20.5357185,23.2857051 C20.0033518,23.2857051 19.5714316,22.8537849 19.5714316,22.3214182 L19.5714316,18.1428418 L18.2857158,18.1428418 L18.2857158,31 L19.5714316,31 L19.5714316,26.8214236 C19.5714316,26.2890569 20.0033518,25.8571367 20.5357185,25.8571367 L28.8928713,25.8571367 C29.425238,25.8571367 29.8571582,26.2890569 29.8571582,26.8214236 L29.8571582,31 Z M26.0000107,21.6785603 L26.0000107,18.4642708 C26.0000107,18.2935116 25.8493409,18.1428418 25.6785818,18.1428418 L23.750008,18.1428418 C23.5792489,18.1428418 23.4285791,18.2935116 23.4285791,18.4642708 L23.4285791,21.6785603 C23.4285791,21.8493194 23.5792489,21.9999893 23.750008,21.9999893 L25.6785818,21.9999893 C25.8493409,21.9999893 26.0000107,21.8493194 26.0000107,21.6785603 Z M32.4285898,21.9999893 L32.4285898,31.321429 C32.4285898,31.8537957 31.9966697,32.2857158 31.464303,32.2857158 L17.9642869,32.2857158 C17.4319202,32.2857158 17,31.8537957 17,31.321429 L17,17.8214129 C17,17.2890462 17.4319202,16.857126 17.9642869,16.857126 L27.2857265,16.857126 C27.8180933,16.857126 28.5513531,17.1584656 28.9330499,17.5401625 L31.7455533,20.3526659 C32.1272502,20.7343628 32.4285898,21.4676226 32.4285898,21.9999893 Z" id=""></path>
            </g>
        </g>
    </g>
</svg>