<?xml version="1.0" encoding="UTF-8"?>
<svg width="51px" height="44px" viewBox="0 0 51 44" version="1.1" xmlns="http://www.w3.org/2000/svg" xmlns:xlink="http://www.w3.org/1999/xlink">
    <!-- Generator: Sketch 43.1 (39012) - http://www.bohemiancoding.com/sketch -->
    <title>swicth</title>
    <desc>Created with Sketch.</desc>
    <defs></defs>
    <g id="Page-1" stroke="none" stroke-width="1" fill="none" fill-rule="evenodd">
        <g id="MAIN" transform="translate(-334.000000, -21.000000)">
            <g id="swicth" transform="translate(335.000000, 22.000000)">
                <path d="M42,6.46153846 C45.5588942,6.46153846 48.4615385,9.36418269 48.4615385,12.9230769 L48.4615385,35.5384615 C48.4615385,39.0973558 45.5588942,42 42,42 L6.46153846,42 C2.90264423,42 5.68434189e-14,39.0973558 5.68434189e-14,35.5384615 L5.68434189e-14,12.9230769 C5.68434189e-14,9.36418269 2.90264423,6.46153846 6.46153846,6.46153846 L12.1153846,6.46153846 L13.4026442,3.02884615 C14.0336538,1.36298077 16.0024038,0 17.7692308,0 L30.6923077,0 C32.4591346,0 34.4278846,1.36298077 35.0588942,3.02884615 L36.3461538,6.46153846 L42,6.46153846 Z" id="" stroke="#FFFFFF" stroke-width="2"></path>
                <path d="M23.9999989,15.2499987 L23.9999989,19.1249988 L29.1666656,13.958332 L23.9999989,8.79166527 L23.9999989,12.6666653 C18.290832,12.6666653 13.6666653,17.290832 13.6666653,22.9999989 C13.6666653,25.027915 14.2608321,26.9137485 15.2683317,28.5024992 L17.1541651,26.6166657 C16.5729154,25.5445825 16.2499987,24.3045825 16.2499987,22.9999989 C16.2499987,18.7245828 19.7245828,15.2499987 23.9999989,15.2499987 Z" id="Path" fill="#FFFFFF"></path>
                <path d="M32.7316659,17.4974985 L30.8458313,19.3833319 C31.4141653,20.468332 31.749999,21.6954151 31.749999,22.9999989 C31.749999,27.2754148 28.2754148,30.749999 23.9999989,30.749999 L23.9999989,26.8749989 L18.8333321,32.0416657 L23.9999989,37.2083325 L23.9999989,33.3333324 C29.7091656,33.3333324 34.3333324,28.7091656 34.3333324,22.9999989 C34.3333324,20.9720825 33.7391669,19.0862491 32.7316659,17.4974985 Z" id="Path" fill="#FFFFFF"></path>
            </g>
        </g>
    </g>
</svg>